<?xml version="1.0" standalone="no"?>
<!DOCTYPE svg PUBLIC "-//W3C//DTD SVG 20010904//EN"
 "http://www.w3.org/TR/2001/REC-SVG-20010904/DTD/svg10.dtd">
<svg version="1.0" xmlns="http://www.w3.org/2000/svg"
 width="1000.000000pt" height="1000.000000pt" viewBox="0 0 1000.000000 1000.000000"
 preserveAspectRatio="xMidYMid meet">
<metadata>
Created by potrace 1.14, written by Peter Selinger 2001-2017
</metadata>
<g transform="translate(0.000000,1000.000000) scale(0.100000,-0.100000)"
fill="#000000" stroke="none">
<path d="M4376 9888 c-18 -40 -40 -89 -48 -108 -8 -19 -43 -98 -78 -175 -34
-77 -68 -153 -75 -170 -13 -28 -39 -88 -99 -218 -14 -31 -38 -85 -52 -120 -14
-34 -44 -100 -65 -145 -22 -46 -39 -86 -39 -88 0 -2 -13 -32 -29 -66 -16 -35
-75 -166 -131 -293 -56 -126 -110 -248 -120 -270 -10 -22 -102 -229 -205 -460
-103 -231 -195 -438 -205 -460 -10 -22 -63 -142 -118 -266 -56 -125 -110 -248
-122 -275 -12 -27 -32 -71 -45 -99 -39 -83 -75 -165 -75 -170 0 -2 -17 -41
-39 -87 -21 -46 -53 -117 -71 -158 -31 -72 -100 -227 -142 -320 -11 -25 -29
-63 -38 -85 -10 -22 -29 -65 -43 -95 -13 -30 -40 -91 -60 -135 -19 -44 -44
-100 -55 -125 -11 -25 -75 -169 -142 -320 -67 -151 -137 -308 -156 -348 -19
-41 -34 -75 -34 -77 0 -2 -13 -32 -29 -67 -16 -35 -48 -106 -71 -158 -24 -52
-50 -111 -58 -130 -9 -19 -16 -37 -17 -40 -1 -3 -11 -25 -22 -50 -11 -25 -48
-106 -81 -180 -33 -74 -69 -155 -80 -180 -27 -58 -217 -485 -292 -655 -79
-179 -213 -481 -265 -595 -23 -52 -188 -421 -365 -820 -177 -399 -330 -743
-340 -765 -68 -148 -120 -271 -120 -282 0 -7 4 -13 9 -13 5 0 38 -13 73 -29
35 -16 140 -63 233 -104 162 -71 210 -92 353 -158 35 -16 65 -29 67 -29 2 0
36 -15 77 -34 40 -18 127 -57 193 -86 66 -29 147 -65 180 -80 169 -76 562
-249 573 -252 8 -2 44 68 97 187 47 105 94 209 105 232 11 24 20 45 20 47 0 2
18 42 39 88 21 45 63 137 91 203 29 66 68 153 87 193 18 39 33 74 33 76 0 2
15 37 34 78 19 40 87 192 151 338 65 146 130 292 145 325 15 33 87 195 160
360 73 165 148 333 166 373 19 40 34 75 34 77 0 3 15 37 34 77 18 40 95 213
171 383 76 171 150 338 166 372 16 34 35 79 44 99 17 41 9 41 135 -5 47 -18
105 -39 130 -47 25 -9 110 -40 190 -69 229 -85 647 -236 865 -315 186 -67 281
-101 330 -121 11 -4 54 -19 95 -34 41 -15 98 -35 125 -45 58 -22 155 -57 465
-169 124 -45 232 -85 240 -88 8 -3 20 -7 25 -9 6 -1 80 -28 165 -60 85 -31
196 -71 245 -89 50 -18 506 -184 1015 -370 509 -185 936 -341 950 -345 14 -5
92 -33 175 -64 82 -30 153 -52 156 -48 7 7 223 594 335 912 31 85 59 164 64
175 14 35 38 98 58 155 59 163 125 347 157 435 20 55 39 109 44 120 7 17 1 22
-43 40 -42 17 -56 29 -87 80 -42 68 -623 1034 -649 1080 -13 23 -662 1100
-729 1210 -6 11 -97 162 -201 335 -103 173 -260 433 -347 578 -87 144 -167
278 -178 297 -11 19 -65 109 -120 200 -55 90 -107 177 -115 192 -8 16 -17 30
-20 33 -3 3 -12 17 -20 33 -8 15 -134 225 -280 467 -555 921 -671 1116 -680
1136 -5 14 -39 34 -97 59 -48 21 -110 48 -138 60 -27 13 -133 60 -235 105
-102 45 -210 94 -240 107 -30 14 -197 88 -370 165 -552 245 -663 295 -683 305
-4 2 -22 -29 -41 -69z m1358 -3533 c244 -407 488 -812 541 -900 53 -88 101
-169 108 -180 7 -11 24 -39 40 -63 15 -24 27 -44 27 -46 0 -2 85 -144 189
-317 104 -173 186 -315 182 -317 -4 -1 -88 27 -187 64 -98 36 -235 86 -304
111 -69 24 -165 59 -215 78 -49 18 -371 135 -715 260 -344 124 -665 241 -715
260 -49 18 -111 40 -137 50 -27 9 -48 20 -48 25 0 8 19 52 117 270 14 30 31
69 38 85 7 17 24 55 38 85 13 30 41 93 62 140 20 47 53 118 71 158 19 41 34
76 34 78 0 2 13 32 29 66 39 82 360 806 373 838 8 20 11 22 18 10 5 -8 209
-348 454 -755z"/>
</g>
</svg>
